<?xml version="1.0" standalone="no"?>
<!DOCTYPE svg PUBLIC "-//W3C//DTD SVG 20010904//EN"
 "http://www.w3.org/TR/2001/REC-SVG-20010904/DTD/svg10.dtd">
<svg version="1.0" xmlns="http://www.w3.org/2000/svg"
 width="800.000000pt" height="600.000000pt" viewBox="0 0 800.000000 600.000000"
 preserveAspectRatio="xMidYMid meet">

<g transform="translate(0.000000,600.000000) scale(0.100000,-0.100000)"
fill="#000000" stroke="none">
<path d="M0 3000 l0 -3000 4000 0 4000 0 0 3000 0 3000 -4000 0 -4000 0 0
-3000z m5342 1256 c44 -23 247 -206 263 -237 17 -33 19 -77 5 -114 -5 -14 -90
-122 -188 -238 -98 -117 -483 -576 -856 -1022 -374 -445 -700 -831 -725 -858
-93 -97 -138 -87 -310 71 -69 64 -351 325 -627 579 -275 254 -506 474 -512
488 -15 33 -15 104 1 131 17 31 188 222 213 239 35 23 96 35 135 26 29 -7 670
-389 936 -557 l52 -33 123 127 c134 138 141 145 843 876 264 274 493 507 510
517 36 22 99 24 137 5z m1050 -2838 c-14 -14 -16 -32 -2 -23 9 6 8 -3 -7 -45
-3 -8 -7 -28 -9 -45 -4 -26 -14 -52 -62 -155 -27 -57 -64 -115 -77 -123 -8 -4
-15 -13 -15 -20 0 -18 -85 -115 -153 -175 -54 -48 -148 -112 -164 -112 -7 0
-13 -4 -13 -9 0 -5 -15 -14 -32 -21 -18 -6 -49 -20 -68 -30 -40 -21 -115 -42
-148 -42 -12 0 -25 -4 -28 -9 -8 -14 -21 -11 -27 6 -4 8 -1 17 5 21 6 4 8 3 4
-4 -3 -6 -2 -13 4 -17 10 -6 13 3 13 37 0 10 4 15 8 12 5 -3 7 -9 4 -14 -3 -5
0 -12 6 -15 7 -5 10 1 9 16 -4 45 -1 56 11 36 5 -9 8 -21 4 -26 -3 -5 0 -13 6
-17 7 -4 9 -3 6 4 -8 12 58 94 68 84 4 -4 2 3 -4 16 -6 12 -9 22 -6 22 15 0
20 -3 18 -9 -1 -4 4 -8 12 -8 10 0 11 5 5 17 -5 9 -5 22 -1 29 6 10 10 9 14
-4 5 -11 3 -14 -6 -9 -6 4 -9 4 -5 0 10 -11 23 -8 23 7 1 6 6 11 13 10 6 -2
16 6 22 17 6 11 16 17 22 14 7 -4 8 -3 4 5 -4 6 -11 9 -16 6 -15 -9 -5 19 15
43 24 27 50 30 40 5 -5 -14 -4 -15 6 -6 10 10 9 16 -2 29 -12 15 -12 17 0 9
11 -6 13 -4 8 9 -4 9 -3 14 2 11 5 -3 12 -1 16 5 4 6 11 8 16 4 14 -9 38 14
34 34 -4 26 15 43 39 36 19 -6 19 -5 7 10 -8 9 -11 19 -7 23 3 3 6 2 6 -4 0
-15 24 -23 39 -13 10 5 9 9 -4 13 -10 5 -14 3 -9 -5 4 -7 3 -8 -4 -4 -9 5 -9
13 -2 27 6 11 16 17 21 13 6 -3 9 2 7 12 -2 11 2 18 10 16 6 -1 12 3 12 10 0
6 3 9 6 6 3 -4 -2 -18 -12 -33 -14 -21 -15 -28 -4 -38 10 -9 11 -9 6 0 -4 7 3
26 15 42 17 24 20 33 10 44 -9 12 -7 14 11 13 13 0 26 -5 30 -11 5 -6 8 -5 8
3 0 7 4 11 9 7 5 -3 13 0 17 6 4 8 3 9 -4 5 -7 -4 -12 -1 -12 6 0 9 -3 9 -10
-2 -8 -13 -10 -12 -10 3 0 14 5 17 20 12 13 -4 25 1 36 14 10 11 20 18 24 16
3 -2 7 5 7 16 1 11 -2 17 -7 14 -4 -3 -10 2 -14 10 -3 8 0 17 6 21 7 4 8 3 4
-4 -4 -7 -5 -12 -2 -12 2 0 11 -3 20 -6 12 -4 16 0 16 15 0 12 5 21 11 21 6 0
8 -8 5 -17 -5 -15 -3 -14 10 2 8 11 19 19 24 18 5 -2 7 4 3 13 -5 13 -7 13
-14 2 -17 -27 -8 2 9 32 10 16 22 27 25 23 4 -3 0 -14 -8 -23 -14 -16 -14 -18
-1 -23 9 -4 15 -3 15 1 -3 20 2 32 15 32 8 0 14 9 13 19 0 11 -5 17 -9 15 -5
-3 -5 -11 -2 -17 4 -7 3 -8 -1 -4 -11 9 -16 37 -7 35 16 -3 41 15 35 25 -4 6
-1 7 7 2 10 -6 12 -4 6 11 -6 15 -5 17 5 7 10 -10 10 -16 1 -25z m-121 -115
c13 -16 12 -17 -3 -4 -10 7 -18 15 -18 17 0 8 8 3 21 -13z m-78 -95 c-10 -11
-19 -15 -21 -9 -2 6 -9 8 -14 5 -7 -4 -8 -2 -4 4 4 6 13 9 22 5 8 -3 14 -2 13
3 -3 18 1 25 12 19 7 -5 4 -14 -8 -27z m-240 -241 c-5 -8 -8 -7 -11 1 -2 7 -9
9 -14 6 -7 -4 -8 -2 -4 4 4 6 13 9 21 6 8 -4 12 -11 8 -17z m-140 -142 c-7
-21 -13 -19 -13 6 0 11 4 18 10 14 5 -3 7 -12 3 -20z m-113 -105 c-26 -37 -39
-45 -35 -23 1 10 8 17 14 16 6 -2 12 2 12 7 1 6 3 15 4 20 1 6 3 13 4 16 0 3
6 2 11 -1 6 -4 2 -18 -10 -35z"/>
<path d="M6366 1387 c3 -10 9 -15 12 -12 3 3 0 11 -7 18 -10 9 -11 8 -5 -6z"/>
<path d="M6117 1129 c4 -13 8 -18 11 -10 2 7 -1 18 -6 23 -8 8 -9 4 -5 -13z"/>
<path d="M5976 1012 c-2 -4 -1 -14 5 -22 7 -12 9 -12 9 3 0 11 4 15 12 11 7
-4 8 -3 4 4 -8 14 -23 16 -30 4z"/>
<path d="M5915 937 c-4 -10 -5 -21 -1 -24 3 -4 6 -1 6 6 0 7 4 10 9 6 5 -3 13
0 17 6 4 7 3 9 -4 5 -5 -3 -12 0 -15 6 -3 9 -7 7 -12 -5z"/>
<path d="M5848 878 c-15 -15 -16 -18 -3 -18 9 0 18 7 22 15 8 23 0 24 -19 3z"/>
</g>
</svg>
